<svg version="1.1" id="Layer_1" xmlns="http://www.w3.org/2000/svg" xmlns:xlink="http://www.w3.org/1999/xlink" x="0px" y="0px"
	 width="100%" viewBox="0 0 636 318" enable-background="new 0 0 636 318" xml:space="preserve">
<path fill="#FFFFFF" opacity="1.000000" stroke="none" 
	d="
M472.000000,319.000000 
	C314.666656,319.000000 157.833328,319.000000 1.000000,319.000000 
	C1.000000,213.000000 1.000000,107.000000 1.000000,1.000000 
	C213.000000,1.000000 425.000000,1.000000 637.000000,1.000000 
	C637.000000,107.000000 637.000000,213.000000 637.000000,319.000000 
	C582.166687,319.000000 527.333313,319.000000 472.000000,319.000000 
M311.261658,101.193474 
	C310.035187,105.119347 308.808746,109.045227 307.495087,113.169319 
	C307.495087,113.169319 307.580322,113.368393 307.048462,113.852318 
	C305.808655,117.916756 304.568848,121.981194 303.021271,126.769722 
	C302.858978,127.805519 302.696686,128.841309 302.060486,130.495224 
	C300.896545,135.481812 299.732635,140.468399 298.232819,146.894135 
	C303.340088,143.356110 307.177673,140.697647 311.617004,138.179916 
	C312.094940,137.832993 312.572845,137.486053 313.712006,137.005402 
	C314.896332,136.087112 316.080658,135.168839 317.312897,134.258469 
	C317.312897,134.258469 317.353912,134.284927 318.046967,134.191711 
	C334.665131,123.601738 351.283295,113.011772 369.092102,101.663086 
	C368.362976,106.244148 367.906067,109.114861 367.076752,112.644119 
	C366.955261,113.866867 366.833801,115.089622 366.064362,116.707130 
	C365.162750,120.138084 364.261108,123.569031 363.040436,127.613014 
	C363.009979,128.068237 362.979553,128.523468 362.507263,129.351212 
	C362.458984,129.901733 362.410706,130.452240 362.062012,131.630630 
	C362.048309,132.089783 362.034607,132.548920 361.541687,133.473862 
	C361.151154,134.984573 360.760620,136.495300 359.953430,138.594925 
	C359.690613,139.740662 359.427795,140.886414 358.649719,142.579636 
	C357.301270,148.385727 355.952850,154.191818 354.222198,160.685410 
	C354.159790,161.461502 354.097382,162.237610 353.555542,163.456024 
	C353.431458,164.304337 353.307404,165.152649 352.777374,166.526382 
	C352.538422,167.358368 352.299469,168.190369 351.623993,169.386673 
	C351.543640,169.926086 351.463287,170.465500 351.090698,171.637466 
	C351.086487,172.097382 351.082306,172.557312 350.594055,173.463730 
	C350.502472,174.313019 350.410889,175.162292 350.007904,176.615540 
	C349.973480,177.062958 349.939087,177.510361 349.419434,178.487122 
	C345.309357,193.488022 341.161896,208.478821 337.113556,223.496368 
	C336.000366,227.625885 335.183319,231.835281 333.983887,236.514236 
	C333.987732,236.701874 333.991577,236.889526 333.663666,237.228348 
	C333.493988,237.422241 333.419037,237.647659 333.056915,238.479599 
	C333.006683,238.935486 332.956451,239.391373 332.434479,240.402130 
	C330.859680,246.968079 329.284851,253.534027 327.389099,260.703278 
	C327.328979,261.152161 327.268860,261.601074 326.743134,262.419495 
	C326.716034,262.981384 326.688904,263.543243 326.332458,264.701447 
	C326.281769,265.149567 326.231049,265.597717 325.677673,266.559937 
	C324.850464,269.187042 323.808258,271.775208 323.320801,274.463898 
	C323.164856,275.323975 324.477936,276.450348 326.017639,277.653137 
	C339.650269,277.604675 353.282928,277.556213 367.594177,277.777679 
	C368.618866,276.827881 369.643555,275.878113 370.905823,274.259308 
	C371.039612,273.323639 371.173401,272.388000 371.755096,270.970428 
	C371.940735,269.949066 372.126404,268.927673 372.678040,267.255646 
	C373.055267,265.821838 373.432495,264.388062 374.223236,262.550110 
	C374.285248,261.999725 374.347290,261.449341 374.747040,260.193420 
	C374.973663,258.650360 375.200317,257.107330 375.842651,255.239990 
	C375.963776,254.474396 376.084900,253.708817 376.212158,252.141678 
	C378.096771,244.760040 379.981415,237.378403 382.085571,229.234467 
	C382.455383,228.333725 382.937012,227.461838 383.177948,226.527832 
	C385.854187,216.152908 388.329010,205.723007 391.181000,195.397110 
	C395.401917,180.114822 400.049347,164.949585 404.205017,149.650269 
	C407.965454,135.805984 411.125977,121.798843 414.880035,107.952721 
	C421.046234,85.210007 427.497437,62.544685 433.786987,39.835251 
	C435.659698,33.073658 437.393799,26.273687 439.482605,18.392645 
	C437.374115,19.658184 436.381104,20.191254 435.453613,20.820835 
	C427.763824,26.040686 420.186279,31.433481 412.380981,36.473816 
	C401.073730,43.775547 389.542084,50.729321 378.220276,58.008980 
	C364.532715,66.809738 350.948212,75.771240 337.350769,84.711349 
	C329.829773,89.656296 322.373505,94.699715 314.295624,99.962570 
	C313.536194,100.337883 312.776794,100.713196 311.261658,101.193474 
M225.638657,228.001907 
	C221.300919,244.472672 216.963181,260.943420 212.530853,277.773315 
	C233.422134,277.773315 253.390244,277.779938 273.358368,277.770691 
	C284.352417,277.765564 295.349579,277.855408 306.337128,277.578094 
	C307.918976,277.538147 310.436493,275.973236 310.855499,274.604218 
	C314.018524,264.270447 316.848450,253.831360 319.625793,243.383530 
	C327.531860,213.642349 335.364746,183.881699 343.223511,154.127930 
	C345.411652,145.843460 347.589783,137.556320 349.998688,128.411911 
	C348.158844,129.342468 347.121887,129.754700 346.202789,130.349152 
	C336.986389,136.310364 327.811340,142.335632 318.582733,148.277802 
	C291.734589,165.564926 264.893372,182.863144 237.981400,200.050507 
	C233.528061,202.894653 230.646606,206.237686 229.887421,211.782211 
	C229.171051,217.014160 227.263733,222.083038 225.638657,228.001907 
z"/>
<path fill="#082957" opacity="1.000000" stroke="none" 
	d="
M225.759491,227.612778 
	C227.263733,222.083038 229.171051,217.014160 229.887421,211.782211 
	C230.646606,206.237686 233.528061,202.894653 237.981400,200.050507 
	C264.893372,182.863144 291.734589,165.564926 318.582733,148.277802 
	C327.811340,142.335632 336.986389,136.310364 346.202789,130.349152 
	C347.121887,129.754700 348.158844,129.342468 349.998688,128.411911 
	C347.589783,137.556320 345.411652,145.843460 343.223511,154.127930 
	C335.364746,183.881699 327.531860,213.642349 319.625793,243.383530 
	C316.848450,253.831360 314.018524,264.270447 310.855499,274.604218 
	C310.436493,275.973236 307.918976,277.538147 306.337128,277.578094 
	C295.349579,277.855408 284.352417,277.765564 273.358368,277.770691 
	C253.390244,277.779938 233.422134,277.773315 212.530853,277.773315 
	C216.963181,260.943420 221.300919,244.472672 225.759491,227.612778 
z"/>
<path fill="#3897FF" opacity="1.000000" stroke="none" 
	d="
M367.449158,111.985580 
	C367.906067,109.114861 368.362976,106.244148 369.092102,101.663086 
	C351.283295,113.011772 334.665131,123.601738 317.598389,133.852264 
	C317.792236,130.522934 319.093475,127.500618 318.948273,124.549469 
	C318.575897,116.979324 319.593323,110.011345 325.727661,104.932770 
	C327.752197,103.256622 330.746277,102.811150 333.039978,101.388489 
	C338.284821,98.135445 343.336273,94.572739 348.528168,91.232025 
	C362.705994,82.109360 377.088867,73.292206 391.047943,63.847687 
	C399.378326,58.211452 407.321991,51.922813 414.958374,45.366997 
	C421.198059,40.010242 422.294281,39.591988 427.998718,45.333847 
	C427.998322,46.110176 427.997955,46.553791 427.656311,47.054092 
	C427.210052,48.407185 427.105011,49.703590 426.996033,51.360977 
	C426.327087,53.480156 425.662109,55.238361 424.643494,57.053757 
	C422.141632,59.825016 418.669647,62.346851 422.956085,66.379303 
	C421.942261,69.504517 420.971130,72.251953 419.628967,75.044449 
	C418.618683,75.570526 417.515289,75.968124 417.411499,76.545395 
	C416.295776,82.752708 414.058899,88.423996 410.768890,93.858276 
	C409.111877,96.595268 411.932770,96.913719 413.998779,97.334091 
	C413.998779,98.110802 413.998779,98.554642 413.642273,99.037247 
	C411.284729,102.408524 409.167480,105.682938 407.434357,109.149399 
	C407.225281,109.567604 409.094177,111.024719 409.998047,112.338394 
	C409.664093,113.450874 409.332031,114.225281 408.648438,115.037750 
	C406.605865,117.152168 404.822754,119.161301 403.245331,121.320648 
	C400.875092,124.565201 401.624084,126.020844 406.000000,127.333130 
	C406.000000,128.110428 406.000000,128.554611 405.651886,129.036224 
	C403.072906,131.990845 400.653107,134.786453 398.671906,137.864380 
	C397.132355,140.256134 398.721649,141.056564 401.275299,141.244080 
	C401.367065,143.326035 401.183533,145.162720 400.625336,147.004547 
	C393.840485,149.288162 392.072876,153.442337 396.000153,157.249542 
	C396.000610,157.666458 396.000916,157.833237 395.949646,158.340286 
	C393.629791,161.738373 391.361481,164.796173 388.642090,168.462067 
	C390.602081,168.704010 391.801056,168.852005 393.000000,169.437469 
	C393.000000,171.916428 393.000000,173.957901 392.652039,176.036560 
	C390.502625,178.132874 388.509094,180.057831 386.952026,182.287598 
	C385.287018,184.671936 387.076172,185.018494 389.040710,185.370193 
	C391.232391,189.210938 388.943848,191.562027 386.649231,194.036285 
	C385.000214,195.764908 383.701965,197.457230 382.403748,199.149551 
	C383.269165,199.432831 384.134583,199.716110 385.042603,200.378738 
	C385.389343,202.504379 385.693451,204.250656 385.622803,206.002594 
	C378.124725,208.722900 375.889771,211.042450 377.259735,215.785309 
	C378.360046,219.594635 377.438416,222.236755 374.797607,224.700531 
	C372.474335,226.868118 371.768494,229.105286 373.392212,232.222824 
	C373.977997,233.347504 373.457275,235.965195 372.486755,236.829391 
	C367.549622,241.225662 367.231781,242.825043 370.995453,248.132858 
	C371.462952,248.792145 371.356476,249.858444 371.515961,250.736145 
	C370.530518,250.838455 369.544952,250.940002 368.559631,251.043289 
	C367.421143,251.162643 365.661530,250.857132 365.240845,251.470016 
	C361.196899,257.361511 355.105072,257.872314 348.870789,257.973389 
	C344.202454,258.049103 342.966583,256.148254 344.708466,251.700134 
	C345.550323,249.550323 347.096985,247.592346 347.547760,245.388626 
	C349.194183,237.339478 350.390472,229.198547 352.017548,221.144974 
	C352.656708,217.981339 354.234100,215.013504 354.950409,211.858017 
	C357.017670,202.751022 358.684082,193.550873 360.854065,184.470032 
	C362.610016,177.121658 364.856506,169.890015 366.906219,162.612442 
	C369.023712,155.094238 371.266052,147.609543 373.267548,140.060822 
	C374.984802,133.584076 377.053894,127.107727 377.807526,120.498932 
	C378.370514,115.561722 377.237610,110.391617 376.506866,105.376656 
	C376.342651,104.249596 374.708130,103.336769 373.750488,102.325317 
	C372.838715,103.328087 371.752350,104.223129 371.052704,105.356827 
	C369.733856,107.493797 368.637817,109.768272 367.449158,111.985580 
z"/>
<path fill="#3396FF" opacity="1.000000" stroke="none" 
	d="
M367.262939,112.314850 
	C368.637817,109.768272 369.733856,107.493797 371.052704,105.356827 
	C371.752350,104.223129 372.838715,103.328087 373.750488,102.325317 
	C374.708130,103.336769 376.342651,104.249596 376.506866,105.376656 
	C377.237610,110.391617 378.370514,115.561722 377.807526,120.498932 
	C377.053894,127.107727 374.984802,133.584076 373.267548,140.060822 
	C371.266052,147.609543 369.023712,155.094238 366.906219,162.612442 
	C364.856506,169.890015 362.610016,177.121658 360.854065,184.470032 
	C358.684082,193.550873 357.017670,202.751022 354.950409,211.858017 
	C354.234100,215.013504 352.656708,217.981339 352.017548,221.144974 
	C350.390472,229.198547 349.194183,237.339478 347.547760,245.388626 
	C347.096985,247.592346 345.550323,249.550323 344.708466,251.700134 
	C342.966583,256.148254 344.202454,258.049103 348.870789,257.973389 
	C355.105072,257.872314 361.196899,257.361511 365.240845,251.470016 
	C365.661530,250.857132 367.421143,251.162643 368.559631,251.043289 
	C369.544952,250.940002 370.530518,250.838455 371.515961,250.736145 
	C371.356476,249.858444 371.462952,248.792145 370.995453,248.132858 
	C367.231781,242.825043 367.549622,241.225662 372.486755,236.829391 
	C373.457275,235.965195 373.977997,233.347504 373.392212,232.222824 
	C371.768494,229.105286 372.474335,226.868118 374.797607,224.700531 
	C377.438416,222.236755 378.360046,219.594635 377.259735,215.785309 
	C375.889771,211.042450 378.124725,208.722900 385.465454,206.321533 
	C383.790894,213.454147 381.820679,220.254028 380.116455,227.119919 
	C379.926086,227.886841 381.246338,229.028732 381.866028,229.996750 
	C379.981415,237.378403 378.096771,244.760040 375.907013,252.769974 
	C375.543549,254.120270 375.485229,254.842270 375.426941,255.564270 
	C375.200317,257.107330 374.973663,258.650360 374.348633,260.623566 
	C373.903412,261.687225 373.856567,262.320740 373.809692,262.954254 
	C373.432495,264.388062 373.055267,265.821838 372.208557,267.744934 
	C371.595093,269.306915 371.451141,270.379639 371.307190,271.452332 
	C371.173401,272.388000 371.039612,273.323639 370.491455,274.660645 
	C369.023224,275.877258 367.969391,276.692474 366.915558,277.507751 
	C353.282928,277.556213 339.650269,277.604675 325.527527,277.176300 
	C325.283051,274.950714 325.573944,273.206787 325.761719,271.451843 
	C325.953888,269.655457 326.045013,267.848297 326.180359,266.045837 
	C326.231049,265.597717 326.281769,265.149567 326.717865,264.317505 
	C327.138428,263.305664 327.173584,262.677826 327.208740,262.049957 
	C327.268860,261.601074 327.328979,261.152161 327.831116,260.244568 
	C329.817505,253.139664 331.361877,246.493454 332.906219,239.847260 
	C332.956451,239.391373 333.006683,238.935486 333.379333,238.084122 
	C333.855316,237.511566 333.953217,237.307739 333.995422,237.077164 
	C333.991577,236.889526 333.987732,236.701874 334.450928,236.250763 
	C335.492310,235.551712 336.458374,235.200378 336.573242,234.666031 
	C337.075989,232.327866 337.070679,229.862381 337.720276,227.576828 
	C341.720001,213.503601 345.938385,199.491837 349.841064,185.392380 
	C350.479706,183.085098 349.913849,180.444382 349.904694,177.957779 
	C349.939087,177.510361 349.973480,177.062958 350.497986,176.300797 
	C351.601440,175.427368 352.214813,174.868698 352.828186,174.309998 
	C352.244812,173.879074 351.661469,173.448151 351.078125,173.017227 
	C351.082306,172.557312 351.086487,172.097382 351.494171,171.271484 
	C351.951935,170.277802 352.006226,169.650085 352.060516,169.022369 
	C352.299469,168.190369 352.538422,167.358368 353.287933,166.210281 
	C353.877319,164.934021 353.956146,163.973862 354.034973,163.013702 
	C354.097382,162.237610 354.159790,161.461502 354.709473,160.229401 
	C357.030914,154.198029 358.879333,148.627106 360.628113,143.025085 
	C360.678986,142.862228 359.676422,142.370529 359.165009,142.032150 
	C359.427795,140.886414 359.690613,139.740662 360.486267,138.237518 
	C361.353058,136.256104 361.686981,134.632080 362.020905,133.008072 
	C362.034607,132.548920 362.048309,132.089783 362.476379,131.265015 
	C362.910187,130.259171 362.929626,129.618927 362.949097,128.978699 
	C362.979553,128.523468 363.009979,128.068237 363.529602,127.211349 
	C364.916656,123.310585 365.814514,119.811478 366.712341,116.312370 
	C366.833801,115.089622 366.955261,113.866867 367.262939,112.314850 
z"/>
<path fill="#3297FF" opacity="1.000000" stroke="none" 
	d="
M381.975800,229.615601 
	C381.246338,229.028732 379.926086,227.886841 380.116455,227.119919 
	C381.820679,220.254028 383.790894,213.454147 385.840210,206.315903 
	C385.693451,204.250656 385.389343,202.504379 385.077515,200.025513 
	C385.713196,197.528641 386.356598,195.764328 387.000000,194.000000 
	C388.943848,191.562027 391.232391,189.210938 389.076111,185.013962 
	C390.380524,181.524414 391.690247,178.761902 393.000000,175.999390 
	C393.000000,173.957901 393.000000,171.916428 393.269531,169.219604 
	C394.676941,166.399963 396.094849,164.325897 396.833954,162.033035 
	C397.200378,160.896301 396.318390,159.357117 396.001221,158.000000 
	C396.000916,157.833237 396.000610,157.666458 396.154999,156.937103 
	C397.873138,153.249481 399.436554,150.124435 401.000000,146.999390 
	C401.183533,145.162720 401.367065,143.326035 401.312134,140.884033 
	C402.715759,136.518707 404.357880,132.758743 406.000000,128.998779 
	C406.000000,128.554611 406.000000,128.110428 406.000000,126.904373 
	C407.000000,122.428223 408.000000,118.713959 409.000000,114.999695 
	C409.332031,114.225281 409.664093,113.450874 409.998657,111.945450 
	C410.424683,109.856232 410.829987,108.492043 411.275452,107.141098 
	C412.171661,104.423065 413.089722,101.712265 413.998779,98.998474 
	C413.998779,98.554642 413.998779,98.110802 413.999847,96.937042 
	C414.418854,94.622704 414.809387,93.030457 415.259674,91.455299 
	C416.828613,85.966805 418.418243,80.484222 420.000000,74.999390 
	C420.971130,72.251953 421.942261,69.504517 422.963440,65.987411 
	C423.674744,62.477356 424.335938,59.736965 424.997131,56.996571 
	C425.662109,55.238361 426.327087,53.480156 427.268677,51.129433 
	C427.696014,49.357079 427.846802,48.177246 427.997559,46.997414 
	C427.997955,46.553791 427.998322,46.110176 428.296600,45.100212 
	C429.050629,41.978016 429.907532,39.398872 429.761047,36.878040 
	C429.704315,35.901684 427.135376,34.086552 426.128296,34.336338 
	C423.201691,35.062263 420.213104,36.246384 417.742859,37.962112 
	C411.938446,41.993614 406.514069,46.568546 400.761230,50.679058 
	C395.326660,54.562141 389.712128,58.199871 384.097443,61.822567 
	C378.436859,65.474869 372.624359,68.892342 366.978638,72.566711 
	C361.317383,76.251160 355.875397,80.276886 350.167084,83.883659 
	C340.189667,90.187828 330.109253,96.331131 319.998169,102.419228 
	C318.542572,103.295670 316.676239,103.490005 315.000000,103.750000 
	C315.000000,103.500000 315.000000,103.000000 314.998535,102.587357 
	C314.960754,101.349388 314.924408,100.524071 314.888062,99.698746 
	C322.373505,94.699715 329.829773,89.656296 337.350769,84.711349 
	C350.948212,75.771240 364.532715,66.809738 378.220276,58.008980 
	C389.542084,50.729321 401.073730,43.775547 412.380981,36.473816 
	C420.186279,31.433481 427.763824,26.040686 435.453613,20.820835 
	C436.381104,20.191254 437.374115,19.658184 439.482605,18.392645 
	C437.393799,26.273687 435.659698,33.073658 433.786987,39.835251 
	C427.497437,62.544685 421.046234,85.210007 414.880035,107.952721 
	C411.125977,121.798843 407.965454,135.805984 404.205017,149.650269 
	C400.049347,164.949585 395.401917,180.114822 391.181000,195.397110 
	C388.329010,205.723007 385.854187,216.152908 383.177948,226.527832 
	C382.937012,227.461838 382.455383,228.333725 381.975800,229.615601 
z"/>
<path fill="#3396FF" opacity="1.000000" stroke="none" 
	d="
M315.000000,104.000000 
	C316.676239,103.490005 318.542572,103.295670 319.998169,102.419228 
	C330.109253,96.331131 340.189667,90.187828 350.167084,83.883659 
	C355.875397,80.276886 361.317383,76.251160 366.978638,72.566711 
	C372.624359,68.892342 378.436859,65.474869 384.097443,61.822567 
	C389.712128,58.199871 395.326660,54.562141 400.761230,50.679058 
	C406.514069,46.568546 411.938446,41.993614 417.742859,37.962112 
	C420.213104,36.246384 423.201691,35.062263 426.128296,34.336338 
	C427.135376,34.086552 429.704315,35.901684 429.761047,36.878040 
	C429.907532,39.398872 429.050629,41.978016 428.296631,44.767502 
	C422.294281,39.591988 421.198059,40.010242 414.958374,45.366997 
	C407.321991,51.922813 399.378326,58.211452 391.047943,63.847687 
	C377.088867,73.292206 362.705994,82.109360 348.528168,91.232025 
	C343.336273,94.572739 338.284821,98.135445 333.039978,101.388489 
	C330.746277,102.811150 327.752197,103.256622 325.727661,104.932770 
	C319.593323,110.011345 318.575897,116.979324 318.948273,124.549469 
	C319.093475,127.500618 317.792236,130.522934 317.251892,133.898880 
	C317.353912,134.284927 317.312897,134.258469 316.899750,134.175598 
	C315.341309,135.108185 314.196045,136.123657 313.050781,137.139130 
	C312.572845,137.486053 312.094940,137.832993 311.166351,137.762146 
	C310.151886,134.041458 309.588074,130.738541 309.085144,127.792336 
	C306.917236,128.482269 304.725800,129.179688 302.534363,129.877106 
	C302.696686,128.841309 302.858978,127.805519 303.508179,126.310616 
	C305.190155,121.690468 306.385254,117.529434 307.580322,113.368393 
	C307.580322,113.368393 307.495087,113.169319 307.989990,113.081261 
	C314.746094,112.746269 314.996857,112.400131 315.000000,104.000000 
z"/>
<path fill="#3897FF" opacity="1.000000" stroke="none" 
	d="
M349.662048,178.222443 
	C349.913849,180.444382 350.479706,183.085098 349.841064,185.392380 
	C345.938385,199.491837 341.720001,213.503601 337.720276,227.576828 
	C337.070679,229.862381 337.075989,232.327866 336.573242,234.666031 
	C336.458374,235.200378 335.492310,235.551712 334.574158,235.997650 
	C335.183319,231.835281 336.000366,227.625885 337.113556,223.496368 
	C341.161896,208.478821 345.309357,193.488022 349.662048,178.222443 
z"/>
<path fill="#2E98FE" opacity="1.000000" stroke="none" 
	d="
M302.297424,130.186157 
	C304.725800,129.179688 306.917236,128.482269 309.085144,127.792336 
	C309.588074,130.738541 310.151886,134.041458 310.865479,137.691788 
	C307.177673,140.697647 303.340088,143.356110 298.232819,146.894135 
	C299.732635,140.468399 300.896545,135.481812 302.297424,130.186157 
z"/>
<path fill="#3196FF" opacity="1.000000" stroke="none" 
	d="
M315.000000,103.750000 
	C314.996857,112.400131 314.746094,112.746269 308.033600,112.982147 
	C308.808746,109.045227 310.035187,105.119347 311.786774,101.418976 
	C313.207916,102.096306 314.103973,102.548149 315.000000,103.000000 
	C315.000000,103.000000 315.000000,103.500000 315.000000,103.750000 
z"/>
<path fill="#3897FF" opacity="1.000000" stroke="none" 
	d="
M358.907349,142.305893 
	C359.676422,142.370529 360.678986,142.862228 360.628113,143.025085 
	C358.879333,148.627106 357.030914,154.198029 354.900604,159.885651 
	C355.952850,154.191818 357.301270,148.385727 358.907349,142.305893 
z"/>
<path fill="#5CA9FC" opacity="1.000000" stroke="none" 
	d="
M332.670349,240.124695 
	C331.361877,246.493454 329.817505,253.139664 327.991577,259.942932 
	C329.284851,253.534027 330.859680,246.968079 332.670349,240.124695 
z"/>
<path fill="#5CA9FC" opacity="1.000000" stroke="none" 
	d="
M325.929016,266.302887 
	C326.045013,267.848297 325.953888,269.655457 325.761719,271.451843 
	C325.573944,273.206787 325.283051,274.950714 325.078156,277.077179 
	C324.477936,276.450348 323.164856,275.323975 323.320801,274.463898 
	C323.808258,271.775208 324.850464,269.187042 325.929016,266.302887 
z"/>
<path fill="#50A3FD" opacity="1.000000" stroke="none" 
	d="
M307.314392,113.610352 
	C306.385254,117.529434 305.190155,121.690468 303.662048,125.948570 
	C304.568848,121.981194 305.808655,117.916756 307.314392,113.610352 
z"/>
<path fill="#3897FF" opacity="1.000000" stroke="none" 
	d="
M366.388367,116.509750 
	C365.814514,119.811478 364.916656,123.310585 363.689148,126.904839 
	C364.261108,123.569031 365.162750,120.138084 366.388367,116.509750 
z"/>
<path fill="#3897FF" opacity="1.000000" stroke="none" 
	d="
M361.781311,133.240967 
	C361.686981,134.632080 361.353058,136.256104 360.694611,137.943069 
	C360.760620,136.495300 361.151154,134.984573 361.781311,133.240967 
z"/>
<path fill="#5CA9FC" opacity="1.000000" stroke="none" 
	d="
M367.254883,277.642700 
	C367.969391,276.692474 369.023224,275.877258 370.372681,274.995178 
	C369.643555,275.878113 368.618866,276.827881 367.254883,277.642700 
z"/>
<path fill="#3897FF" opacity="1.000000" stroke="none" 
	d="
M350.836090,173.240479 
	C351.661469,173.448151 352.244812,173.879074 352.828186,174.309998 
	C352.214813,174.868698 351.601440,175.427368 350.653687,175.998810 
	C350.410889,175.162292 350.502472,174.313019 350.836090,173.240479 
z"/>
<path fill="#3897FF" opacity="1.000000" stroke="none" 
	d="
M313.381409,137.072266 
	C314.196045,136.123657 315.341309,135.108185 316.875793,134.171631 
	C316.080658,135.168839 314.896332,136.087112 313.381409,137.072266 
z"/>
<path fill="#3897FF" opacity="1.000000" stroke="none" 
	d="
M353.795258,163.234863 
	C353.956146,163.973862 353.877319,164.934021 353.490906,165.947571 
	C353.307404,165.152649 353.431458,164.304337 353.795258,163.234863 
z"/>
<path fill="#3396FF" opacity="1.000000" stroke="none" 
	d="
M314.998535,102.587357 
	C314.103973,102.548149 313.207916,102.096306 312.164612,101.366486 
	C312.776794,100.713196 313.536194,100.337883 314.591858,99.830658 
	C314.924408,100.524071 314.960754,101.349388 314.998535,102.587357 
z"/>
<path fill="#5CA9FC" opacity="1.000000" stroke="none" 
	d="
M371.531128,271.211365 
	C371.451141,270.379639 371.595093,269.306915 372.025543,268.070251 
	C372.126404,268.927673 371.940735,269.949066 371.531128,271.211365 
z"/>
<path fill="#3897FF" opacity="1.000000" stroke="none" 
	d="
M351.842255,169.204529 
	C352.006226,169.650085 351.951935,170.277802 351.640289,170.955215 
	C351.463287,170.465500 351.543640,169.926086 351.842255,169.204529 
z"/>
<path fill="#3897FF" opacity="1.000000" stroke="none" 
	d="
M362.728180,129.164948 
	C362.929626,129.618927 362.910187,130.259171 362.626587,130.951080 
	C362.410706,130.452240 362.458984,129.901733 362.728180,129.164948 
z"/>
<path fill="#5CA9FC" opacity="1.000000" stroke="none" 
	d="
M375.634766,255.402130 
	C375.485229,254.842270 375.543549,254.120270 375.903931,253.170746 
	C376.084900,253.708817 375.963776,254.474396 375.634766,255.402130 
z"/>
<path fill="#5CA9FC" opacity="1.000000" stroke="none" 
	d="
M374.016479,262.752197 
	C373.856567,262.320740 373.903412,261.687225 374.179779,260.976318 
	C374.347290,261.449341 374.285248,261.999725 374.016479,262.752197 
z"/>
<path fill="#5CA9FC" opacity="1.000000" stroke="none" 
	d="
M326.975952,262.234741 
	C327.173584,262.677826 327.138428,263.305664 326.882507,264.019348 
	C326.688904,263.543243 326.716034,262.981384 326.975952,262.234741 
z"/>
<path fill="#3897FF" opacity="1.000000" stroke="none" 
	d="
M333.829529,237.152756 
	C333.953217,237.307739 333.855316,237.511566 333.570312,237.796631 
	C333.419037,237.647659 333.493988,237.422241 333.829529,237.152756 
z"/>
<path fill="#3396FF" opacity="1.000000" stroke="none" 
	d="
M419.628967,75.044449 
	C418.418243,80.484222 416.828613,85.966805 415.259674,91.455299 
	C414.809387,93.030457 414.418854,94.622704 413.999847,96.604164 
	C411.932770,96.913719 409.111877,96.595268 410.768890,93.858276 
	C414.058899,88.423996 416.295776,82.752708 417.411499,76.545395 
	C417.515289,75.968124 418.618683,75.570526 419.628967,75.044449 
z"/>
<path fill="#3396FF" opacity="1.000000" stroke="none" 
	d="
M395.949646,158.340286 
	C396.318390,159.357117 397.200378,160.896301 396.833954,162.033035 
	C396.094849,164.325897 394.676941,166.399963 393.269531,168.782135 
	C391.801056,168.852005 390.602081,168.704010 388.642090,168.462067 
	C391.361481,164.796173 393.629791,161.738373 395.949646,158.340286 
z"/>
<path fill="#3396FF" opacity="1.000000" stroke="none" 
	d="
M413.642273,99.037247 
	C413.089722,101.712265 412.171661,104.423065 411.275452,107.141098 
	C410.829987,108.492043 410.424683,109.856232 410.000610,111.607376 
	C409.094177,111.024719 407.225281,109.567604 407.434357,109.149399 
	C409.167480,105.682938 411.284729,102.408524 413.642273,99.037247 
z"/>
<path fill="#3396FF" opacity="1.000000" stroke="none" 
	d="
M408.648468,115.037750 
	C408.000000,118.713959 407.000000,122.428223 406.000000,126.571243 
	C401.624084,126.020844 400.875092,124.565201 403.245331,121.320648 
	C404.822754,119.161301 406.605865,117.152168 408.648468,115.037750 
z"/>
<path fill="#3396FF" opacity="1.000000" stroke="none" 
	d="
M400.625305,147.004547 
	C399.436554,150.124435 397.873138,153.249481 396.154846,156.686951 
	C392.072876,153.442337 393.840485,149.288162 400.625305,147.004547 
z"/>
<path fill="#3396FF" opacity="1.000000" stroke="none" 
	d="
M405.651886,129.036224 
	C404.357880,132.758743 402.715759,136.518707 401.036804,140.638733 
	C398.721649,141.056564 397.132355,140.256134 398.671906,137.864380 
	C400.653107,134.786453 403.072906,131.990845 405.651886,129.036224 
z"/>
<path fill="#3396FF" opacity="1.000000" stroke="none" 
	d="
M392.652008,176.036560 
	C391.690247,178.761902 390.380524,181.524414 389.035400,184.643158 
	C387.076172,185.018494 385.287018,184.671936 386.952026,182.287598 
	C388.509094,180.057831 390.502625,178.132874 392.652008,176.036560 
z"/>
<path fill="#3396FF" opacity="1.000000" stroke="none" 
	d="
M424.643494,57.053757 
	C424.335938,59.736965 423.674744,62.477356 423.006165,65.609634 
	C418.669647,62.346851 422.141632,59.825016 424.643494,57.053757 
z"/>
<path fill="#3396FF" opacity="1.000000" stroke="none" 
	d="
M386.649231,194.036285 
	C386.356598,195.764328 385.713196,197.528641 385.034882,199.646179 
	C384.134583,199.716110 383.269165,199.432831 382.403748,199.149551 
	C383.701965,197.457230 385.000214,195.764908 386.649231,194.036285 
z"/>
<path fill="#3396FF" opacity="1.000000" stroke="none" 
	d="
M427.656311,47.054096 
	C427.846802,48.177246 427.696014,49.357079 427.272614,50.768456 
	C427.105011,49.703590 427.210052,48.407185 427.656311,47.054096 
z"/>
</svg>